<mxfile host="app.diagrams.net" modified="2024-05-23T08:53:41.948Z" agent="Mozilla/5.0 (Windows NT 10.0; Win64; x64; rv:126.0) Gecko/20100101 Firefox/126.0" etag="qJ74g6jh9JV1uQFwo5Gm" version="24.4.6" type="github">
  <diagram name="Страница — 1" id="dD9Z_7Vzqi32CPfQn7Kw">
    <mxGraphModel dx="2927" dy="2283" grid="1" gridSize="10" guides="1" tooltips="1" connect="1" arrows="1" fold="1" page="1" pageScale="1" pageWidth="827" pageHeight="1169" math="0" shadow="0">
      <root>
        <mxCell id="0" />
        <mxCell id="1" parent="0" />
        <mxCell id="TFbBuUvVKTUdsZVz-cSt-23" value="" style="group" vertex="1" connectable="0" parent="1">
          <mxGeometry x="280" y="1270" width="170" height="297" as="geometry" />
        </mxCell>
        <mxCell id="TFbBuUvVKTUdsZVz-cSt-17" value="NotificationService" style="swimlane;whiteSpace=wrap;html=1;container=0;" vertex="1" parent="TFbBuUvVKTUdsZVz-cSt-23">
          <mxGeometry y="59.77777777777783" width="170" height="237.22222222222223" as="geometry">
            <mxRectangle y="60" width="130" height="30" as="alternateBounds" />
          </mxGeometry>
        </mxCell>
        <mxCell id="TFbBuUvVKTUdsZVz-cSt-18" value="&lt;div&gt;Отвечает за хранение и отправку уведомлений пользователю&lt;/div&gt;" style="whiteSpace=wrap;html=1;container=0;" vertex="1" parent="TFbBuUvVKTUdsZVz-cSt-23">
          <mxGeometry y="82.04761904761904" width="170" height="132.65079365079364" as="geometry">
            <mxRectangle y="20" width="510" height="30" as="alternateBounds" />
          </mxGeometry>
        </mxCell>
        <mxCell id="TFbBuUvVKTUdsZVz-cSt-19" value="DB" style="shape=cylinder3;whiteSpace=wrap;html=1;boundedLbl=1;backgroundOutline=1;size=15;container=0;" vertex="1" parent="TFbBuUvVKTUdsZVz-cSt-23">
          <mxGeometry x="59.5" y="219.53968253968253" width="51.00000000000001" height="77.46031746031746" as="geometry">
            <mxRectangle x="70" y="165" width="90" height="30" as="alternateBounds" />
          </mxGeometry>
        </mxCell>
        <mxCell id="TFbBuUvVKTUdsZVz-cSt-22" value="Kafka" style="rounded=0;whiteSpace=wrap;html=1;container=0;" vertex="1" parent="TFbBuUvVKTUdsZVz-cSt-23">
          <mxGeometry x="25.5" width="120" height="60" as="geometry" />
        </mxCell>
        <mxCell id="TFbBuUvVKTUdsZVz-cSt-24" style="edgeStyle=orthogonalEdgeStyle;rounded=0;orthogonalLoop=1;jettySize=auto;html=1;exitX=0.5;exitY=1;exitDx=0;exitDy=0;exitPerimeter=0;entryX=1;entryY=0.5;entryDx=0;entryDy=0;" edge="1" parent="1" source="TFbBuUvVKTUdsZVz-cSt-16" target="TFbBuUvVKTUdsZVz-cSt-22">
          <mxGeometry relative="1" as="geometry" />
        </mxCell>
        <mxCell id="TFbBuUvVKTUdsZVz-cSt-25" value="" style="group" vertex="1" connectable="0" parent="1">
          <mxGeometry x="520" y="410" width="200" height="245" as="geometry" />
        </mxCell>
        <mxCell id="TFbBuUvVKTUdsZVz-cSt-14" value="ForumService" style="swimlane;whiteSpace=wrap;html=1;container=0;" vertex="1" parent="TFbBuUvVKTUdsZVz-cSt-25">
          <mxGeometry width="200" height="245" as="geometry">
            <mxRectangle x="370" y="200" width="130" height="30" as="alternateBounds" />
          </mxGeometry>
        </mxCell>
        <mxCell id="TFbBuUvVKTUdsZVz-cSt-15" value="Отвечает за форумы и отправку сообщения в них" style="whiteSpace=wrap;html=1;container=0;" vertex="1" parent="TFbBuUvVKTUdsZVz-cSt-25">
          <mxGeometry y="23" width="200" height="137" as="geometry">
            <mxRectangle y="20" width="510" height="30" as="alternateBounds" />
          </mxGeometry>
        </mxCell>
        <mxCell id="TFbBuUvVKTUdsZVz-cSt-16" value="DB" style="shape=cylinder3;whiteSpace=wrap;html=1;boundedLbl=1;backgroundOutline=1;size=15;container=0;" vertex="1" parent="TFbBuUvVKTUdsZVz-cSt-25">
          <mxGeometry x="70" y="165" width="60" height="80" as="geometry" />
        </mxCell>
        <mxCell id="TFbBuUvVKTUdsZVz-cSt-26" value="" style="group" vertex="1" connectable="0" parent="1">
          <mxGeometry x="-110" y="390" width="200" height="245" as="geometry" />
        </mxCell>
        <mxCell id="TFbBuUvVKTUdsZVz-cSt-10" value="&lt;div&gt;UserService&lt;br&gt;&lt;/div&gt;" style="swimlane;whiteSpace=wrap;html=1;container=0;" vertex="1" parent="TFbBuUvVKTUdsZVz-cSt-26">
          <mxGeometry width="200" height="245" as="geometry">
            <mxRectangle x="370" y="200" width="130" height="30" as="alternateBounds" />
          </mxGeometry>
        </mxCell>
        <mxCell id="TFbBuUvVKTUdsZVz-cSt-11" value="Отвечает за регистрацию, аутентификацию, и данные пользователя.&amp;nbsp; " style="whiteSpace=wrap;html=1;container=0;" vertex="1" parent="TFbBuUvVKTUdsZVz-cSt-26">
          <mxGeometry y="23" width="200" height="137" as="geometry">
            <mxRectangle y="20" width="510" height="30" as="alternateBounds" />
          </mxGeometry>
        </mxCell>
        <mxCell id="TFbBuUvVKTUdsZVz-cSt-12" value="DB" style="shape=cylinder3;whiteSpace=wrap;html=1;boundedLbl=1;backgroundOutline=1;size=15;container=0;" vertex="1" parent="TFbBuUvVKTUdsZVz-cSt-26">
          <mxGeometry x="70" y="165" width="60" height="80" as="geometry" />
        </mxCell>
        <mxCell id="TFbBuUvVKTUdsZVz-cSt-27" value="" style="group" vertex="1" connectable="0" parent="1">
          <mxGeometry x="380" y="-90" width="200" height="210" as="geometry" />
        </mxCell>
        <mxCell id="TFbBuUvVKTUdsZVz-cSt-6" value="&lt;div&gt;GateWayService&lt;/div&gt;" style="swimlane;whiteSpace=wrap;html=1;container=0;" vertex="1" parent="TFbBuUvVKTUdsZVz-cSt-27">
          <mxGeometry width="200" height="210" as="geometry">
            <mxRectangle x="370" y="200" width="130" height="30" as="alternateBounds" />
          </mxGeometry>
        </mxCell>
        <mxCell id="TFbBuUvVKTUdsZVz-cSt-9" value="Принимает все запросы и перенаправляет их, в будующем заменить на Nginx/Eureka" style="whiteSpace=wrap;html=1;container=0;" vertex="1" parent="TFbBuUvVKTUdsZVz-cSt-27">
          <mxGeometry y="23" width="200" height="187" as="geometry">
            <mxRectangle y="20" width="510" height="30" as="alternateBounds" />
          </mxGeometry>
        </mxCell>
        <mxCell id="TFbBuUvVKTUdsZVz-cSt-30" style="edgeStyle=orthogonalEdgeStyle;rounded=0;orthogonalLoop=1;jettySize=auto;html=1;exitX=0.5;exitY=1;exitDx=0;exitDy=0;" edge="1" parent="1" source="TFbBuUvVKTUdsZVz-cSt-9" target="TFbBuUvVKTUdsZVz-cSt-14">
          <mxGeometry relative="1" as="geometry" />
        </mxCell>
        <mxCell id="TFbBuUvVKTUdsZVz-cSt-33" style="edgeStyle=orthogonalEdgeStyle;rounded=0;orthogonalLoop=1;jettySize=auto;html=1;exitX=0.5;exitY=1;exitDx=0;exitDy=0;" edge="1" parent="1" source="TFbBuUvVKTUdsZVz-cSt-9" target="TFbBuUvVKTUdsZVz-cSt-10">
          <mxGeometry relative="1" as="geometry">
            <Array as="points">
              <mxPoint x="480" y="280" />
              <mxPoint x="400" y="280" />
              <mxPoint x="400" y="290" />
              <mxPoint x="-10" y="290" />
            </Array>
          </mxGeometry>
        </mxCell>
        <mxCell id="TFbBuUvVKTUdsZVz-cSt-34" value="" style="group" vertex="1" connectable="0" parent="1">
          <mxGeometry x="250" y="470" width="200" height="245" as="geometry" />
        </mxCell>
        <mxCell id="TFbBuUvVKTUdsZVz-cSt-35" value="ChatService" style="swimlane;whiteSpace=wrap;html=1;container=0;" vertex="1" parent="TFbBuUvVKTUdsZVz-cSt-34">
          <mxGeometry width="200" height="245" as="geometry">
            <mxRectangle x="370" y="200" width="130" height="30" as="alternateBounds" />
          </mxGeometry>
        </mxCell>
        <mxCell id="TFbBuUvVKTUdsZVz-cSt-36" value="Хранит информацию о чате" style="whiteSpace=wrap;html=1;container=0;" vertex="1" parent="TFbBuUvVKTUdsZVz-cSt-34">
          <mxGeometry y="23" width="200" height="137" as="geometry">
            <mxRectangle y="20" width="510" height="30" as="alternateBounds" />
          </mxGeometry>
        </mxCell>
        <mxCell id="TFbBuUvVKTUdsZVz-cSt-37" value="DB" style="shape=cylinder3;whiteSpace=wrap;html=1;boundedLbl=1;backgroundOutline=1;size=15;container=0;" vertex="1" parent="TFbBuUvVKTUdsZVz-cSt-34">
          <mxGeometry x="70" y="165" width="60" height="80" as="geometry" />
        </mxCell>
        <mxCell id="TFbBuUvVKTUdsZVz-cSt-40" value="UI" style="ellipse;whiteSpace=wrap;html=1;fontSize=20;" vertex="1" parent="1">
          <mxGeometry x="70" y="-160" width="250" height="180" as="geometry" />
        </mxCell>
        <mxCell id="TFbBuUvVKTUdsZVz-cSt-41" style="edgeStyle=orthogonalEdgeStyle;rounded=0;orthogonalLoop=1;jettySize=auto;html=1;exitX=0.5;exitY=1;exitDx=0;exitDy=0;" edge="1" parent="1" source="TFbBuUvVKTUdsZVz-cSt-9" target="TFbBuUvVKTUdsZVz-cSt-35">
          <mxGeometry relative="1" as="geometry" />
        </mxCell>
        <mxCell id="TFbBuUvVKTUdsZVz-cSt-52" value="" style="group" vertex="1" connectable="0" parent="1">
          <mxGeometry x="280" y="790" width="170" height="297" as="geometry" />
        </mxCell>
        <mxCell id="TFbBuUvVKTUdsZVz-cSt-53" value="MessageSendService" style="swimlane;whiteSpace=wrap;html=1;container=0;" vertex="1" parent="TFbBuUvVKTUdsZVz-cSt-52">
          <mxGeometry y="59.77777777777783" width="170" height="237.22222222222223" as="geometry">
            <mxRectangle y="60" width="130" height="30" as="alternateBounds" />
          </mxGeometry>
        </mxCell>
        <mxCell id="TFbBuUvVKTUdsZVz-cSt-54" value="Отвечает за отправку сообщений" style="whiteSpace=wrap;html=1;container=0;" vertex="1" parent="TFbBuUvVKTUdsZVz-cSt-52">
          <mxGeometry y="82.05" width="170" height="207.95" as="geometry">
            <mxRectangle y="20" width="510" height="30" as="alternateBounds" />
          </mxGeometry>
        </mxCell>
        <mxCell id="TFbBuUvVKTUdsZVz-cSt-56" value="Kafka" style="rounded=0;whiteSpace=wrap;html=1;container=0;" vertex="1" parent="TFbBuUvVKTUdsZVz-cSt-52">
          <mxGeometry x="25.5" width="120" height="60" as="geometry" />
        </mxCell>
        <mxCell id="TFbBuUvVKTUdsZVz-cSt-57" style="edgeStyle=orthogonalEdgeStyle;rounded=0;orthogonalLoop=1;jettySize=auto;html=1;exitX=0.5;exitY=1;exitDx=0;exitDy=0;exitPerimeter=0;entryX=0.5;entryY=0;entryDx=0;entryDy=0;" edge="1" parent="1" source="TFbBuUvVKTUdsZVz-cSt-37" target="TFbBuUvVKTUdsZVz-cSt-56">
          <mxGeometry relative="1" as="geometry" />
        </mxCell>
        <mxCell id="TFbBuUvVKTUdsZVz-cSt-58" style="edgeStyle=orthogonalEdgeStyle;rounded=0;orthogonalLoop=1;jettySize=auto;html=1;exitX=0.5;exitY=1;exitDx=0;exitDy=0;exitPerimeter=0;entryX=0.5;entryY=0;entryDx=0;entryDy=0;" edge="1" parent="1" target="TFbBuUvVKTUdsZVz-cSt-22">
          <mxGeometry relative="1" as="geometry">
            <mxPoint x="365" y="1086.9999999999995" as="sourcePoint" />
          </mxGeometry>
        </mxCell>
        <mxCell id="TFbBuUvVKTUdsZVz-cSt-59" style="edgeStyle=orthogonalEdgeStyle;rounded=0;orthogonalLoop=1;jettySize=auto;html=1;exitX=0;exitY=0.25;exitDx=0;exitDy=0;entryX=0.5;entryY=1;entryDx=0;entryDy=0;" edge="1" parent="1" source="TFbBuUvVKTUdsZVz-cSt-18" target="TFbBuUvVKTUdsZVz-cSt-40">
          <mxGeometry relative="1" as="geometry">
            <Array as="points">
              <mxPoint x="-570" y="1385" />
              <mxPoint x="-570" y="20" />
            </Array>
          </mxGeometry>
        </mxCell>
      </root>
    </mxGraphModel>
  </diagram>
</mxfile>
